<?xml version="1.0" encoding="UTF-8" standalone="no"?>
<!DOCTYPE svg PUBLIC "-//W3C//DTD SVG 1.1//EN" "http://www.w3.org/Graphics/SVG/1.1/DTD/svg11.dtd">
<svg xmlns="http://www.w3.org/2000/svg" version="1.1" viewBox="0.00 0.00 100.00 60.00">
<g stroke-width="2.00" fill="none" stroke-linecap="butt">
<path stroke="#808080" vector-effect="non-scaling-stroke" d="
  M 43.28 4.54
  L 6.19 4.76
  Q 5.64 4.76 5.65 5.31
  L 5.71 7.79"
/>
<path stroke="#c4c4c4" vector-effect="non-scaling-stroke" d="
  M 5.71 7.79
  L 1.73 9.01
  Q 1.26 9.15 1.34 9.63
  Q 3.09 19.79 4.75 29.85
  C 5.31 33.29 5.13 36.73 5.66 40.23"
/>
<path stroke="#808080" vector-effect="non-scaling-stroke" d="
  M 5.66 40.23
  L 5.69 54.57
  Q 5.69 55.10 6.22 55.11
  L 8.92 55.14"
/>
<path stroke="#c4c4c4" vector-effect="non-scaling-stroke" d="
  M 8.92 55.14
  L 9.37 58.09
  Q 9.55 59.28 10.75 59.17
  Q 31.37 57.20 50.27 55.54
  C 54.58 55.16 58.93 55.24 63.29 55.14"
/>
<path stroke="#808080" vector-effect="non-scaling-stroke" d="
  M 63.29 55.14
  L 94.34 55.08
  Q 94.87 55.08 94.88 54.55
  L 94.95 51.37"
/>
<path stroke="#c4c4c4" vector-effect="non-scaling-stroke" d="
  M 94.95 51.37
  L 98.13 51.02
  Q 98.67 50.96 98.58 50.42
  L 94.69 26.24"
/>
<path stroke="#808080" vector-effect="non-scaling-stroke" d="
  M 94.69 26.24
  L 94.95 5.28
  Q 94.95 4.75 94.43 4.75
  L 91.40 4.71"
/>
<path stroke="#c4c4c4" vector-effect="non-scaling-stroke" d="
  M 91.40 4.71
  Q 90.56 3.53 90.55 1.68
  A 0.89 0.88 -2.7 0 0 89.58 0.80
  Q 80.88 1.58 72.03 2.51
  Q 57.61 4.03 43.28 4.54"
/>
<path stroke="#454545" vector-effect="non-scaling-stroke" d="
  M 91.40 4.71
  Q 91.38 4.87 91.25 5.02
  Q 91.06 5.26 91.11 5.56
  L 94.69 26.24"
/>
<path stroke="#454545" vector-effect="non-scaling-stroke" d="
  M 94.95 51.37
  Q 77.08 52.99 59.17 54.70
  Q 59.12 54.70 59.09 54.75
  Q 59.07 54.80 59.10 54.84
  Q 59.14 54.92 59.24 54.93
  Q 61.26 55.01 63.29 55.14"
/>
<path stroke="#454545" vector-effect="non-scaling-stroke" d="
  M 8.92 55.14
  L 6.36 39.58
  A 0.32 0.32 0.0 0 0 5.87 39.36
  Q 5.56 39.55 5.66 40.23"
/>
<path stroke="#454545" vector-effect="non-scaling-stroke" d="
  M 5.71 7.79
  Q 5.96 8.41 6.49 8.36
  Q 23.48 6.77 40.50 5.54
  Q 42.77 5.38 43.28 4.54"
/>
<path stroke="#88abbe" vector-effect="non-scaling-stroke" d="
  M 76.48 42.71
  L 41.36 42.70
  Q 40.32 42.70 39.66 43.50
  L 37.24 46.38
  Q 36.47 47.30 37.67 47.30
  L 80.74 47.30
  Q 81.67 47.30 82.23 46.56
  L 84.26 43.92
  A 1.15 1.15 0.0 0 0 84.26 42.54
  L 58.85 9.11
  A 2.04 2.02 -13.7 0 0 57.55 8.33
  Q 54.96 7.92 52.03 8.26
  A 1.75 1.71 14.3 0 0 50.84 8.95
  L 37.82 26.42
  Q 37.06 27.43 36.30 26.42
  L 24.48 10.70
  Q 22.91 8.61 20.32 8.38
  Q 19.81 8.34 17.98 8.17
  Q 15.12 7.92 16.86 10.20
  L 32.97 31.32
  A 1.46 1.45 -44.5 0 1 32.95 33.11
  Q 27.17 40.32 21.74 47.83
  Q 21.60 48.03 21.79 48.18
  L 21.80 48.19
  Q 21.91 48.28 22.01 48.17
  Q 37.48 31.13 53.71 13.78
  Q 54.61 12.80 55.42 13.86
  L 76.82 42.01
  Q 77.35 42.71 76.48 42.71"
/>
</g>
<path fill="#ffffff" d="
  M 0.00 0.00
  L 100.00 0.00
  L 100.00 60.00
  L 0.00 60.00
  L 0.00 0.00
  Z
  M 43.28 4.54
  L 6.19 4.76
  Q 5.64 4.76 5.65 5.31
  L 5.71 7.79
  L 1.73 9.01
  Q 1.26 9.15 1.34 9.63
  Q 3.09 19.79 4.75 29.85
  C 5.31 33.29 5.13 36.73 5.66 40.23
  L 5.69 54.57
  Q 5.69 55.10 6.22 55.11
  L 8.92 55.14
  L 9.37 58.09
  Q 9.55 59.28 10.75 59.17
  Q 31.37 57.20 50.27 55.54
  C 54.58 55.16 58.93 55.24 63.29 55.14
  L 94.34 55.08
  Q 94.87 55.08 94.88 54.55
  L 94.95 51.37
  L 98.13 51.02
  Q 98.67 50.96 98.58 50.42
  L 94.69 26.24
  L 94.95 5.28
  Q 94.95 4.75 94.43 4.75
  L 91.40 4.71
  Q 90.56 3.53 90.55 1.68
  A 0.89 0.88 -2.7 0 0 89.58 0.80
  Q 80.88 1.58 72.03 2.51
  Q 57.61 4.03 43.28 4.54
  Z"
/>
<path fill="#898989" d="
  M 91.40 4.71
  Q 91.38 4.87 91.25 5.02
  Q 91.06 5.26 91.11 5.56
  L 94.69 26.24
  L 98.58 50.42
  Q 98.67 50.96 98.13 51.02
  L 94.95 51.37
  Q 77.08 52.99 59.17 54.70
  Q 59.12 54.70 59.09 54.75
  Q 59.07 54.80 59.10 54.84
  Q 59.14 54.92 59.24 54.93
  Q 61.26 55.01 63.29 55.14
  C 58.93 55.24 54.58 55.16 50.27 55.54
  Q 31.37 57.20 10.75 59.17
  Q 9.55 59.28 9.37 58.09
  L 8.92 55.14
  L 6.36 39.58
  A 0.32 0.32 0.0 0 0 5.87 39.36
  Q 5.56 39.55 5.66 40.23
  C 5.13 36.73 5.31 33.29 4.75 29.85
  Q 3.09 19.79 1.34 9.63
  Q 1.26 9.15 1.73 9.01
  L 5.71 7.79
  Q 5.96 8.41 6.49 8.36
  Q 23.48 6.77 40.50 5.54
  Q 42.77 5.38 43.28 4.54
  Q 57.61 4.03 72.03 2.51
  Q 80.88 1.58 89.58 0.80
  A 0.89 0.88 -2.7 0 1 90.55 1.68
  Q 90.56 3.53 91.40 4.71
  Z
  M 76.48 42.71
  L 41.36 42.70
  Q 40.32 42.70 39.66 43.50
  L 37.24 46.38
  Q 36.47 47.30 37.67 47.30
  L 80.74 47.30
  Q 81.67 47.30 82.23 46.56
  L 84.26 43.92
  A 1.15 1.15 0.0 0 0 84.26 42.54
  L 58.85 9.11
  A 2.04 2.02 -13.7 0 0 57.55 8.33
  Q 54.96 7.92 52.03 8.26
  A 1.75 1.71 14.3 0 0 50.84 8.95
  L 37.82 26.42
  Q 37.06 27.43 36.30 26.42
  L 24.48 10.70
  Q 22.91 8.61 20.32 8.38
  Q 19.81 8.34 17.98 8.17
  Q 15.12 7.92 16.86 10.20
  L 32.97 31.32
  A 1.46 1.45 -44.5 0 1 32.95 33.11
  Q 27.17 40.32 21.74 47.83
  Q 21.60 48.03 21.79 48.18
  L 21.80 48.19
  Q 21.91 48.28 22.01 48.17
  Q 37.48 31.13 53.71 13.78
  Q 54.61 12.80 55.42 13.86
  L 76.82 42.01
  Q 77.35 42.71 76.48 42.71
  Z"
/>
<path fill="#000000" d="
  M 43.28 4.54
  Q 42.77 5.38 40.50 5.54
  Q 23.48 6.77 6.49 8.36
  Q 5.96 8.41 5.71 7.79
  L 5.65 5.31
  Q 5.64 4.76 6.19 4.76
  L 43.28 4.54
  Z"
/>
<path fill="#000000" d="
  M 91.40 4.71
  L 94.43 4.75
  Q 94.95 4.75 94.95 5.28
  L 94.69 26.24
  L 91.11 5.56
  Q 91.06 5.26 91.25 5.02
  Q 91.38 4.87 91.40 4.71
  Z"
/>
<path fill="#86cdf2" d="
  M 76.48 42.71
  Q 77.35 42.71 76.82 42.01
  L 55.42 13.86
  Q 54.61 12.80 53.71 13.78
  Q 37.48 31.13 22.01 48.17
  Q 21.91 48.28 21.80 48.19
  L 21.79 48.18
  Q 21.60 48.03 21.74 47.83
  Q 27.17 40.32 32.95 33.11
  A 1.46 1.45 -44.5 0 0 32.97 31.32
  L 16.86 10.20
  Q 15.12 7.92 17.98 8.17
  Q 19.81 8.34 20.32 8.38
  Q 22.91 8.61 24.48 10.70
  L 36.30 26.42
  Q 37.06 27.43 37.82 26.42
  L 50.84 8.95
  A 1.75 1.71 14.3 0 1 52.03 8.26
  Q 54.96 7.92 57.55 8.33
  A 2.04 2.02 -13.7 0 1 58.85 9.11
  L 84.26 42.54
  A 1.15 1.15 0.0 0 1 84.26 43.92
  L 82.23 46.56
  Q 81.67 47.30 80.74 47.30
  L 37.67 47.30
  Q 36.47 47.30 37.24 46.38
  L 39.66 43.50
  Q 40.32 42.70 41.36 42.70
  L 76.48 42.71
  Z"
/>
<path fill="#000000" d="
  M 8.92 55.14
  L 6.22 55.11
  Q 5.69 55.10 5.69 54.57
  L 5.66 40.23
  Q 5.56 39.55 5.87 39.36
  A 0.32 0.32 0.0 0 1 6.36 39.58
  L 8.92 55.14
  Z"
/>
<path fill="#000000" d="
  M 94.95 51.37
  L 94.88 54.55
  Q 94.87 55.08 94.34 55.08
  L 63.29 55.14
  Q 61.26 55.01 59.24 54.93
  Q 59.14 54.92 59.10 54.84
  Q 59.07 54.80 59.09 54.75
  Q 59.12 54.70 59.17 54.70
  Q 77.08 52.99 94.95 51.37
  Z"
/>
</svg>
